<svg xmlns="http://www.w3.org/2000/svg" width="256" height="256" viewBox="0 0 256 256">
  <defs>
    <linearGradient id="g" x1="0" y1="0" x2="1" y2="1">
      <stop offset="0" stop-color="#7c3aed"/>
      <stop offset="1" stop-color="#1f5cff"/>
    </linearGradient>
    <filter id="s" x="-20%" y="-20%" width="140%" height="140%">
      <feDropShadow dx="0" dy="8" stdDeviation="10" flood-color="#000" flood-opacity=".35"/>
    </filter>
  </defs>
  <rect x="20" y="20" width="216" height="216" rx="54" fill="url(#g)" filter="url(#s)"/>
  <circle cx="128" cy="120" r="58" fill="rgba(255,255,255,.16)"/>
  <circle cx="128" cy="120" r="38" fill="rgba(255,255,255,.12)"/>
  <circle cx="128" cy="120" r="12" fill="rgba(255,255,255,.18)"/>
  <rect x="122" y="54" width="12" height="132" rx="6" fill="rgba(255,255,255,.75)"/>
  <path d="M170 168c0 4-3 7-7 7H98c-4 0-7-3-7-7s3-7 7-7h65c4 0 7 3 7 7z" fill="rgba(255,255,255,.85)"/>
  <path d="M166 154l20 14-20 14c-2 1-4 0-5-2-1-2 0-4 2-5l9-7-9-7c-2-1-3-3-2-5 1-2 3-3 5-2z" fill="rgba(255,255,255,.9)"/>
</svg>
